<?xml version="1.0" encoding="UTF-8" standalone="no"?>
<!-- Created with Inkscape (http://www.inkscape.org/) -->

<svg
   xmlns:dc="http://purl.org/dc/elements/1.1/"
   xmlns:cc="http://creativecommons.org/ns#"
   xmlns:rdf="http://www.w3.org/1999/02/22-rdf-syntax-ns#"
   xmlns:svg="http://www.w3.org/2000/svg"
   xmlns="http://www.w3.org/2000/svg"
   xmlns:sodipodi="http://sodipodi.sourceforge.net/DTD/sodipodi-0.dtd"
   xmlns:inkscape="http://www.inkscape.org/namespaces/inkscape"
   width="210mm"
   height="50mm"
   viewBox="0 0 744.09449 177.16536"
   id="svg3356"
   version="1.1"
   inkscape:version="0.91 r13725"
   sodipodi:docname="logo.svg">
  <defs
     id="defs3358">
    <pattern
       y="0"
       x="0"
       height="6"
       width="6"
       patternUnits="userSpaceOnUse"
       id="EMFhbasepattern" />
    <pattern
       y="0"
       x="0"
       height="6"
       width="6"
       patternUnits="userSpaceOnUse"
       id="EMFhbasepattern-3" />
  </defs>
  <sodipodi:namedview
     id="base"
     pagecolor="#ffffff"
     bordercolor="#666666"
     borderopacity="1.0"
     inkscape:pageopacity="0.0"
     inkscape:pageshadow="2"
     inkscape:zoom="1.4"
     inkscape:cx="320.18735"
     inkscape:cy="81.626008"
     inkscape:document-units="px"
     inkscape:current-layer="layer1"
     showgrid="false"
     inkscape:window-width="1412"
     inkscape:window-height="617"
     inkscape:window-x="104"
     inkscape:window-y="104"
     inkscape:window-maximized="0" />
  <metadata
     id="metadata3361">
    <rdf:RDF>
      <cc:Work
         rdf:about="">
        <dc:format>image/svg+xml</dc:format>
        <dc:type
           rdf:resource="http://purl.org/dc/dcmitype/StillImage" />
        <dc:title></dc:title>
      </cc:Work>
    </rdf:RDF>
  </metadata>
  <g
     inkscape:label="Capa 1"
     inkscape:groupmode="layer"
     id="layer1"
     transform="translate(0,-875.19685)">
    <path
       inkscape:connector-curvature="0"
       id="path3406"
       d="m 43.689935,1039.6046 c -10.898777,-2.7217 -19.960683,-13.2196 -21.797573,-25.2725 -0.979649,-6.6097 -0.979649,-91.75848 0,-98.109 1.591941,-10.49789 7.592397,-18.7924 17.021663,-23.58768 l 4.89832,-2.46251 52.167304,-0.25899 c 35.757731,-0.12988 53.391671,0.1299 56.085771,0.64801 10.65396,2.33285 19.34837,11.27542 22.16489,22.55087 1.71447,6.86895 1.71447,97.2019 0,104.0707 -2.20426,9.0722 -7.71493,15.9412 -15.91947,20.3476 l -4.89837,2.4625 -53.636741,0.1302 c -29.51233,0.1304 -54.738767,-0.1302 -56.085794,-0.5185 l 0,0 z m 108.130545,-19.9588 c 3.79624,-2.5919 4.89838,-5.7026 4.89838,-13.3492 l 0,-6.86877 -3.18392,0 c -2.93901,0 -3.30639,0.2589 -4.40852,2.72157 -0.73475,1.5552 -2.44923,3.4994 -3.67378,4.4066 -5.14317,3.24 -12.12333,1.0367 -14.5725,-4.4066 l -1.22461,-2.72157 -17.75636,0 -17.756421,0 -1.102128,2.20307 c -1.959371,4.0179 -5.265754,6.4803 -9.062013,6.4803 -4.286051,0 -7.469967,-1.944 -9.306676,-5.7024 -1.102134,-2.46267 -1.83689,-2.98097 -3.551349,-2.98097 -1.59194,0 -2.204266,0.3888 -2.571643,1.81427 -0.244734,1.037 -1.591941,2.9809 -3.061433,4.4067 -2.204266,1.9439 -3.3064,2.4624 -6.12301,2.4624 -4.286033,0 -7.83722,-2.2034 -9.429141,-5.9618 -1.224616,-2.72157 -1.3471,-2.72157 -5.755633,-2.72157 l -4.408514,0 0,6.47997 c 0,8.2946 1.347081,11.2755 6.000508,13.8673 l 3.306401,1.685 50.330231,-0.1303 c 47.023931,-0.2591 50.452831,-0.3889 52.412131,-1.685 l 0,0 z M 49.69039,993.33655 c 3.061505,-6.22091 9.674107,-8.42425 14.694983,-4.79536 1.347028,0.90728 3.061433,2.98091 3.67376,4.40657 1.46951,3.36947 4.653428,3.49917 6.245421,0.38879 2.204087,-4.53606 4.653249,-6.22091 9.429158,-6.22091 3.796243,0 4.653427,0.38878 6.735265,2.46242 1.224563,1.29606 2.44916,3.11061 2.694074,4.01767 l 0.367358,1.8143 18.123801,0 18.00132,0 1.22461,-2.72136 c 3.5513,-7.77637 14.69491,-7.77637 18.24628,0 1.10213,2.59176 1.46951,2.72136 4.40852,2.72136 l 3.18392,0 0,-14.12651 0,-14.25636 -3.18392,0 c -2.93901,0 -3.30639,0.25913 -4.40852,2.85142 -0.73475,1.42553 -2.44923,3.3695 -3.67378,4.27676 -5.14317,3.24004 -12.12333,1.16638 -14.5725,-4.27676 -1.71441,-3.88815 -4.65344,-3.88815 -6.36788,0 -3.55131,7.77592 -14.69494,7.77592 -18.24625,0 l -1.22458,-2.85142 -17.756422,0 -17.633935,0 -1.102133,2.33297 c -2.081783,4.01742 -5.388183,6.35039 -9.306855,6.35039 -4.286103,0 -7.592324,-2.07364 -9.306729,-5.83194 -1.224616,-2.72176 -1.3471,-2.85142 -5.755633,-2.85142 l -4.408514,0 0,14.25636 0,14.12651 4.408514,0 c 4.163639,0 4.531017,-0.1301 5.510667,-2.07348 z m 0,-32.40066 c 3.061505,-6.09132 9.674107,-8.29464 14.694983,-4.79533 1.347028,1.03685 3.061433,2.98083 3.67376,4.40653 l 1.102132,2.59212 18.001312,0 17.878853,0 1.22458,-2.72177 c 3.42889,-7.64655 13.83789,-7.90573 17.87887,-0.38879 2.32674,4.14726 5.02085,4.27694 6.73526,0.38879 3.5513,-7.90573 14.69491,-7.90573 18.24628,0 1.10213,2.46243 1.46951,2.72177 4.40852,2.72177 l 3.18392,0 0,-14.25643 0,-14.1266 -3.18392,0 c -2.93901,0 -3.30639,0.25901 -4.40852,2.72167 -3.55137,7.7762 -14.69498,7.7762 -18.24628,0 -1.71441,-3.88812 -4.65344,-3.88812 -6.36788,0 -1.8369,4.14728 -5.26555,6.09135 -10.04145,5.70253 -4.28611,-0.38882 -6.85774,-2.20324 -8.44968,-6.09134 -1.34707,-3.49931 -4.40854,-3.2401 -6.123001,0.38881 -2.81635,6.22096 -10.898662,8.0354 -15.674555,3.49929 -1.469511,-1.29607 -2.816612,-3.2401 -3.061505,-4.27693 l -0.490022,-1.94403 -20.450491,0 -20.450525,0 0,14.1266 0,14.25643 4.408532,0 c 4.16362,0 4.530997,-0.13003 5.510647,-2.20332 z m 31.961539,-32.91911 c 3.551294,-7.64642 14.20523,-7.64642 18.00131,-0.12989 1.102131,2.33287 1.836901,2.85122 3.428861,2.85122 1.46952,0 2.20428,-0.51861 3.18391,-2.72166 3.42889,-7.51677 13.83789,-7.77601 17.87887,-0.25901 2.32674,4.14729 4.7759,4.14729 7.10264,0 4.04115,-7.51683 15.06229,-7.12802 18.0013,0.64799 0.85725,2.20331 1.34711,2.33288 4.28612,2.33288 l 3.18392,0 0,-6.73915 c 0,-7.64664 -0.97966,-10.6275 -4.65344,-12.96037 -2.32673,-1.42562 -4.16361,-1.55523 -53.759091,-1.55523 -50.085451,0 -51.309994,0 -53.759228,1.55523 -3.551293,2.33287 -4.775892,5.83214 -4.775892,13.34918 l 0,6.35034 20.328042,0 20.328062,0 1.224616,-2.72167 z"
       style="fill:#f9f9f9;fill-opacity:1;fill-rule:nonzero;stroke:none" />
    <path
       inkscape:connector-curvature="0"
       id="path3408"
       d="m 195.31009,983.10012 0,-55.50675 9.42411,0 9.42468,0 0,4.18402 c 0,2.37076 0.1348,4.18382 0.4039,4.18382 0.26909,0 2.15425,-1.39468 4.30841,-3.06821 6.05871,-4.74173 10.36716,-6.41547 18.31079,-6.83385 8.21294,-0.41838 14.54091,1.11581 20.46497,5.0208 4.44306,2.92889 10.63641,9.48368 12.52132,13.24933 0.80783,1.534 1.48106,2.78936 1.75032,2.78936 0.1348,0 0.94248,-1.25536 1.7503,-2.78936 1.88491,-3.76565 8.07829,-10.32044 12.52135,-13.24933 5.92404,-3.90499 12.25201,-5.43918 20.46496,-5.0208 7.94361,0.41838 12.25209,2.09212 18.31077,6.83385 2.15419,1.67353 4.03916,3.06821 4.30841,3.06821 0.26907,0 0.40391,-1.81306 0.40391,-4.18382 l 0,-4.18402 15.75265,0 15.75265,0 9.69393,24.4059 c 9.69394,24.54608 10.90568,27.19592 11.44241,26.35915 0.13481,-0.13996 5.2509,-11.71513 11.30958,-25.52238 l 11.04034,-25.24267 3.50057,0 3.36599,0 0,-15.75943 0,-15.75963 9.42467,0 9.42462,0 0,19.94345 c 0,11.01768 0.40392,19.94345 0.80783,19.94345 0.26905,0 2.01958,-1.11561 3.76988,-2.64982 1.75032,-1.39468 5.25088,-3.62613 7.80903,-4.88127 3.90449,-1.95259 5.38547,-2.23144 13.46376,-2.23144 8.61686,0 9.29003,0.13995 14.54092,2.92867 6.32802,3.20774 13.4638,9.90228 16.02195,15.20193 1.07708,1.95238 2.15416,3.48596 2.42349,3.48596 0.26905,0 2.15416,-2.23081 4.03915,-5.02016 4.03912,-5.85758 11.44416,-11.85467 18.04146,-14.50449 5.78945,-2.23144 16.82973,-3.0682 23.427,-1.67353 9.55929,2.09191 20.46496,9.90206 25.71585,18.40946 2.55815,4.18339 3.23131,4.46246 3.90454,1.95258 0.80783,-2.64982 9.42462,-11.85466 14.00234,-14.92286 12.25209,-8.08879 27.7354,-8.50718 41.33389,-0.97629 4.84519,2.64982 10.76923,7.81014 13.73131,12.1335 l 1.75023,2.51052 0,-24.82473 0,-24.82493 9.8286,0 9.82853,0 0,32.77419 0,32.63446 14.5409,-16.87482 14.54091,-17.01477 12.25207,0 12.25208,0 -3.23132,3.48658 c -1.88496,2.09212 -8.48217,9.6232 -14.67553,16.87482 -6.1934,7.11271 -12.38669,14.36496 -13.7331,15.75963 l -2.42347,2.78935 14.27163,15.89919 c 7.94362,8.78648 16.42584,18.40946 19.11857,21.33826 l 4.71237,5.2994 -11.84817,0 -11.84816,0 -16.69508,-18.82773 -16.82979,-18.82784 -0.1348,18.82784 -0.26907,18.82773 -9.69387,0 -9.82859,0 -0.26908,-9.06487 -0.26906,-8.9261 -2.96205,4.1839 c -3.50057,4.88107 -10.9039,10.32027 -17.63578,12.97027 -9.69393,3.7657 -22.61918,3.0686 -32.71705,-1.9521 -4.5777,-2.2317 -14.13698,-11.15787 -16.2912,-15.48072 -0.80783,-1.67352 -1.88493,-2.92893 -2.15418,-2.92893 -0.26904,0 -1.48105,1.53405 -2.55813,3.48643 -7.1358,12.55172 -22.21528,20.22262 -37.83326,19.10702 -11.98282,-0.8368 -22.48459,-6.8341 -29.62039,-17.01506 l -3.7699,-5.43881 -3.50056,5.16017 c -4.17379,6.41533 -11.44425,12.6914 -17.63755,15.2018 -3.50063,1.534 -6.19336,1.8126 -12.656,1.9524 -7.27044,0 -8.75144,-0.2768 -12.92525,-2.3708 -2.69272,-1.2551 -6.19335,-3.4869 -7.94361,-4.8817 -1.75033,-1.3943 -3.36597,-2.5105 -3.63525,-2.5105 -0.26904,0 -0.53875,1.953 -0.53875,4.184 l 0,4.3236 -9.42467,0 -9.29003,0 -0.26905,-25.94048 -0.26908,-25.94052 -18.04146,40.72403 -17.9051,40.86337 -9.69393,0 c -5.2509,0 -9.55928,-0.2767 -9.55928,-0.5602 0,-0.415 3.50056,-8.3679 7.80902,-17.9911 l 7.80896,-17.294 -10.90567,-27.47427 c -6.05873,-15.06239 -11.17495,-27.47474 -11.57886,-27.47474 -0.26905,0 -0.53875,13.6675 -0.53875,30.54296 l 0,30.54305 -9.42469,0 -9.42461,0 0,-4.3238 c 0,-2.2316 -0.13481,-4.1838 -0.40393,-4.1838 -0.26906,0 -2.15422,1.3949 -4.30845,3.0684 -6.86653,5.4392 -10.23245,6.5546 -19.92639,6.5546 -7.94368,0.1379 -8.8861,0 -14.13699,-2.65 -6.19336,-3.0678 -13.5985,-9.76207 -16.69513,-15.34091 l -2.01956,-3.62591 -2.69276,4.04424 c -4.03913,6.13641 -10.50175,11.99398 -16.69512,14.92258 -5.11622,2.5105 -6.05871,2.7897 -14.00234,2.65 -9.69393,0 -13.05991,-1.1154 -19.92643,-6.5546 -2.15424,-1.6735 -4.03915,-3.0684 -4.3084,-3.0684 -0.26907,0 -0.40392,8.5076 -0.40392,19.1065 l 0,19.1073 -9.42468,0 -9.4241,0 0,-55.64684 z m 46.18029,8.64669 c 5.52019,-1.81259 9.8286,-5.71776 12.79064,-11.71486 2.01957,-4.46289 2.42348,-6.27595 2.42348,-11.29675 0,-8.36786 -1.7503,-13.52819 -6.59727,-18.40946 -5.78944,-6.13599 -13.32916,-7.94904 -21.67669,-5.43856 -5.2509,1.67354 -9.96326,5.85695 -12.65601,11.15661 -1.75031,3.62611 -2.01956,5.29984 -2.01956,12.27303 0,7.25224 0.26906,8.36806 2.42349,12.55188 5.11622,9.62281 15.21406,13.94653 25.31192,10.87811 z m 77.28224,-1.53394 c 9.42467,-4.74173 14.00232,-18.26994 10.50176,-30.82183 -2.42349,-8.92576 -11.30958,-15.75921 -20.46495,-15.75921 -8.88611,0 -17.77223,6.69391 -20.46503,15.2013 -3.2313,10.18114 -0.13479,23.01188 6.86655,29.00892 6.0587,5.15996 16.02195,6.13648 23.56167,2.37082 z m 142.57988,0.13783 c 16.02189,-8.36784 16.56048,-34.44812 0.94241,-43.65233 -3.90449,-2.37098 -5.11622,-2.64982 -10.50176,-2.51029 -7.53971,0 -11.44419,1.81306 -16.29117,7.53047 -7.94368,9.34436 -7.13586,26.08028 1.48099,34.72718 6.1934,6.27557 16.82975,7.9492 24.36953,3.90497 z m 73.51234,0.13793 c 7.40505,-3.48663 11.98278,-10.87821 12.52132,-20.08303 0.40392,-7.25224 -0.67322,-11.71513 -4.17379,-17.15431 -3.76989,-5.71804 -9.55928,-8.78581 -17.09904,-8.78581 -6.86653,0 -10.63637,1.53419 -15.21408,6.13599 -10.77102,11.01768 -8.34753,32.07713 4.57771,39.0504 3.63523,1.95207 5.52014,2.37071 10.23245,2.37071 3.90453,0 7.00119,-0.56018 9.15543,-1.53395 l 0,0 z m 74.58944,-0.42173 c 7.80902,-3.90496 12.11742,-11.57564 12.11742,-21.75656 0,-8.089 -2.28883,-14.08611 -7.27046,-18.54898 -4.1738,-3.90455 -8.21294,-5.29924 -14.81016,-5.29924 -12.52133,0 -21.13818,9.76211 -21.13818,23.84822 0,10.32045 4.98163,18.96732 12.92525,22.45375 4.30838,1.95279 13.32914,1.53446 18.17613,-0.69719 l 0,0 z"
       style="fill:#f9f9f9;fill-opacity:1;fill-rule:nonzero;stroke:none" />
    <path
       inkscape:connector-curvature="0"
       id="path3410"
       d="m 708.16354,910.83239 0,-7.05219 4.63284,0 c 2.6059,0 5.21184,0.38467 5.79091,0.89753 1.44775,1.41047 1.30297,4.35957 -0.43433,5.25714 -1.15817,0.51309 -1.30297,1.02577 -0.57935,1.79493 0.57935,0.51307 1.15827,2.17974 1.59259,3.59021 0.86865,3.71843 -1.59259,3.33377 -2.75073,-0.38465 -0.57933,-2.43624 -1.15818,-2.94916 -3.18505,-3.20556 -2.31635,-0.25626 -2.46116,-0.12853 -2.46116,2.94907 0,2.30799 -0.2893,3.20558 -1.30294,3.20558 -1.01344,0 -1.30297,-1.41042 -1.30297,-7.05206 z m 8.83125,-1.92334 c 1.73727,-1.92333 0.28932,-3.59018 -3.04024,-3.59018 -2.89546,0 -3.18507,0.25626 -3.18507,2.30801 0,2.05149 0.28932,2.43617 2.60594,2.43617 1.30295,0 3.04025,-0.51308 3.61937,-1.154 z"
       style="fill:#f9f9f9;fill-opacity:1;fill-rule:nonzero;stroke:none" />
    <path
       inkscape:connector-curvature="0"
       id="path3412"
       d="m 709.61132,922.50045 c -5.21188,-1.41043 -9.4103,-6.41111 -9.4103,-11.41157 0,-6.79582 5.79091,-11.92467 13.46397,-11.92467 5.79094,0 9.69982,2.05152 12.16103,6.66752 3.47458,6.28272 0.72386,13.07846 -6.51483,16.02762 -4.05368,1.53866 -5.79098,1.66685 -9.69987,0.6411 z m 10.13419,-1.92334 c 5.50139,-2.56442 7.8178,-10.25757 4.48795,-15.38648 -1.73729,-2.69265 -6.94915,-5.25709 -10.42372,-5.25709 -3.47458,0 -8.10732,2.17974 -10.27894,4.87244 -2.31639,2.94909 -2.60593,8.84712 -0.28931,11.79621 3.47458,4.74424 10.85804,6.41116 16.50425,3.97492 z"
       style="fill:#f9f9f9;fill-opacity:1;fill-rule:nonzero;stroke:none" />
  </g>
</svg>
